<svg width="24" height="24" viewBox="0 0 24 24" fill="none" xmlns="http://www.w3.org/2000/svg">
<path d="M10.8177 2.03428C11.3288 1.09974 12.671 1.09974 13.1821 2.03428L16.0982 7.3661C16.2219 7.5922 16.4078 7.77809 16.6339 7.90175L21.9657 10.8178C22.9002 11.3289 22.9002 12.6711 21.9657 13.1823L16.6339 16.0983C16.4078 16.222 16.2219 16.4079 16.0982 16.634L13.1821 21.9658C12.671 22.9003 11.3288 22.9003 10.8177 21.9658L7.90162 16.634C7.77797 16.4079 7.59207 16.222 7.36598 16.0983L2.03416 13.1823C1.09962 12.6711 1.09962 11.3289 2.03416 10.8178L7.36598 7.90175C7.59207 7.77809 7.77797 7.5922 7.90162 7.3661L10.8177 2.03428Z" fill="#2A44D4"/>
<path d="M2.79335 0.320139C3.02681 -0.106712 3.63986 -0.106713 3.87331 0.320138L4.66123 1.76078C4.71771 1.86405 4.80262 1.94896 4.90588 2.00544L6.34653 2.79335C6.77338 3.02681 6.77338 3.63986 6.34653 3.87331L4.90588 4.66123C4.80262 4.71771 4.71771 4.80261 4.66123 4.90588L3.87331 6.34653C3.63986 6.77338 3.02681 6.77338 2.79335 6.34653L2.00544 4.90588C1.94896 4.80261 1.86405 4.71771 1.76078 4.66123L0.320138 3.87331C-0.106713 3.63986 -0.106712 3.02681 0.320139 2.79335L1.76078 2.00544C1.86405 1.94896 1.94896 1.86405 2.00544 1.76078L2.79335 0.320139Z" fill="#2A44D4"/>
<path d="M20.736 19.0208C20.9943 18.5486 21.6726 18.5486 21.9309 19.0208L22.4415 19.9545C22.504 20.0688 22.5979 20.1627 22.7122 20.2252L23.6459 20.7358C24.1182 20.9941 24.1182 21.6724 23.6459 21.9307L22.7122 22.4414C22.5979 22.5039 22.504 22.5978 22.4415 22.7121L21.9309 23.6457C21.6726 24.118 20.9943 24.118 20.736 23.6457L20.2253 22.7121C20.1628 22.5978 20.0689 22.5039 19.9546 22.4414L19.021 21.9307C18.5487 21.6724 18.5487 20.9941 19.021 20.7358L19.9546 20.2252C20.0689 20.1627 20.1628 20.0688 20.2253 19.9545L20.736 19.0208Z" fill="#2A44D4"/>
</svg>
