<svg width="78" height="77" viewBox="0 0 78 77" fill="none" xmlns="http://www.w3.org/2000/svg">
<g filter="url(#filter0_d_3546_35547)">
<rect x="3.76367" y="27.6836" width="28.0327" height="36.6582" rx="4" transform="rotate(-17.7138 3.76367 27.6836)" fill="white"/>
</g>
<g filter="url(#filter1_d_3546_35547)">
<rect x="47.1055" y="19.8457" width="28.0327" height="36.6582" rx="4" transform="rotate(15 47.1055 19.8457)" fill="white"/>
</g>
<g filter="url(#filter2_d_3546_35547)">
<rect x="21.0371" y="15.0088" width="35.9273" height="46.9818" rx="4" fill="white"/>
</g>
<path fill-rule="evenodd" clip-rule="evenodd" d="M38.2827 30.6487C34.7531 30.6487 31.8918 33.51 31.8918 37.0396C31.8918 40.5692 34.7531 43.4305 38.2827 43.4305C41.8123 43.4305 44.6737 40.5692 44.6737 37.0396C44.6737 33.51 41.8123 30.6487 38.2827 30.6487ZM30.8555 37.0396C30.8555 32.9376 34.1808 29.6123 38.2827 29.6123C42.3847 29.6123 45.71 32.9376 45.71 37.0396C45.71 41.1415 42.3847 44.4669 38.2827 44.4669C34.1808 44.4669 30.8555 41.1415 30.8555 37.0396ZM37.4191 34.2759C37.4191 33.799 37.8058 33.4123 38.2827 33.4123C38.7597 33.4123 39.1464 33.799 39.1464 34.2759C39.1464 34.7529 38.7597 35.1396 38.2827 35.1396C37.8058 35.1396 37.4191 34.7529 37.4191 34.2759ZM38.2827 35.8305C38.5689 35.8305 38.8009 36.0625 38.8009 36.3487V39.8032C38.8009 40.0894 38.5689 40.3214 38.2827 40.3214C37.9966 40.3214 37.7646 40.0894 37.7646 39.8032V36.3487C37.7646 36.0625 37.9966 35.8305 38.2827 35.8305Z" fill="#2A44D4"/>
<defs>
<filter id="filter0_d_3546_35547" x="0.789062" y="18.1807" width="43.8047" height="49.3965" filterUnits="userSpaceOnUse" color-interpolation-filters="sRGB">
<feFlood flood-opacity="0" result="BackgroundImageFix"/>
<feColorMatrix in="SourceAlpha" type="matrix" values="0 0 0 0 0 0 0 0 0 0 0 0 0 0 0 0 0 0 127 0" result="hardAlpha"/>
<feOffset dy="2"/>
<feGaussianBlur stdDeviation="2"/>
<feComposite in2="hardAlpha" operator="out"/>
<feColorMatrix type="matrix" values="0 0 0 0 0.164706 0 0 0 0 0.266667 0 0 0 0 0.831373 0 0 0 0.12 0"/>
<feBlend mode="normal" in2="BackgroundImageFix" result="effect1_dropShadow_3546_35547"/>
<feBlend mode="normal" in="SourceGraphic" in2="effect1_dropShadow_3546_35547" result="shape"/>
</filter>
<filter id="filter1_d_3546_35547" x="34.5156" y="18.7441" width="42.7695" height="48.8682" filterUnits="userSpaceOnUse" color-interpolation-filters="sRGB">
<feFlood flood-opacity="0" result="BackgroundImageFix"/>
<feColorMatrix in="SourceAlpha" type="matrix" values="0 0 0 0 0 0 0 0 0 0 0 0 0 0 0 0 0 0 127 0" result="hardAlpha"/>
<feOffset dy="2"/>
<feGaussianBlur stdDeviation="2"/>
<feComposite in2="hardAlpha" operator="out"/>
<feColorMatrix type="matrix" values="0 0 0 0 0.164706 0 0 0 0 0.266667 0 0 0 0 0.831373 0 0 0 0.12 0"/>
<feBlend mode="normal" in2="BackgroundImageFix" result="effect1_dropShadow_3546_35547"/>
<feBlend mode="normal" in="SourceGraphic" in2="effect1_dropShadow_3546_35547" result="shape"/>
</filter>
<filter id="filter2_d_3546_35547" x="17.0371" y="13.0088" width="43.9277" height="54.9814" filterUnits="userSpaceOnUse" color-interpolation-filters="sRGB">
<feFlood flood-opacity="0" result="BackgroundImageFix"/>
<feColorMatrix in="SourceAlpha" type="matrix" values="0 0 0 0 0 0 0 0 0 0 0 0 0 0 0 0 0 0 127 0" result="hardAlpha"/>
<feOffset dy="2"/>
<feGaussianBlur stdDeviation="2"/>
<feComposite in2="hardAlpha" operator="out"/>
<feColorMatrix type="matrix" values="0 0 0 0 0.164706 0 0 0 0 0.266667 0 0 0 0 0.831373 0 0 0 0.12 0"/>
<feBlend mode="normal" in2="BackgroundImageFix" result="effect1_dropShadow_3546_35547"/>
<feBlend mode="normal" in="SourceGraphic" in2="effect1_dropShadow_3546_35547" result="shape"/>
</filter>
</defs>
</svg>
