<svg viewBox="0 0 72 71" xmlns="http://www.w3.org/2000/svg"><g fill="currentColor"><path d="M71 46.6c0-.1-.1-.3-.1-.4v-.1c-.1-.1-.1-.2-.2-.3L60.3 35.5l10.3-10.3c.4-.4.6-1.1.3-1.6s-.8-.9-1.4-.9H48.4V1.5c0-.6-.4-1.2-.9-1.4-.6-.2-1.2-.1-1.6.3L23.6 22.7H1.5c-.8 0-1.5.7-1.5 1.5v22.7c0 .8.7 1.5 1.5 1.5h19.1l-8.8 8.8c-.6.6-.6 1.5 0 2.1l11.6 11.6c.1 0 .1.1.2.1h46c.8 0 1.5-.7 1.5-1.5V46.9c-.1-.1-.1-.2-.1-.3zM25.7 25.7h19.7v19.7H25.7V25.7zm22.7 2.1L66 45.4H48.4V27.8zm17.5-2.1l-7.7 7.7-7.7-7.7h15.4zM45.4 5.1v17.6H27.8L45.4 5.1zM3 25.7h19.7v19.7H3V25.7zm19.7 24.8v15.4L15 58.2l7.7-7.7zm3-2.1h19.7V68H25.7V48.4zM68 68H48.4V48.4H68V68z"/><path d="M16.9 30.3c-.5-.4-1.1-.7-1.8-.8-.7-.2-1.5-.3-2.3-.3H7.2v12.6h4.2v-3.4h1.4c.9 0 1.6-.1 2.3-.3.7-.2 1.3-.5 1.8-.9s.9-.9 1.2-1.5c.3-.6.4-1.3.4-2s-.1-1.4-.4-2c-.3-.5-.7-1-1.2-1.4zM14.3 34c0 .5-.2.8-.5 1-.3.2-.8.4-1.3.4h-1.1v-2.8h1.2c.6 0 1 .1 1.3.4.3.2.4.5.4 1zm19.9 3h6.2v-3.1h-6.2v-1.2h6.6v-3.5H30.1v12.6h10.8v-3.4h-6.7zm-.8 14.8l-5.3 12.7h4.5l.6-1.7h4.4l.7 1.7h4.6l-5.3-12.7h-4.2zm.9 8.1l1.2-3.1 1.2 3.1h-2.4zM56 61.8l1.1-1.3 2.5 4h5l-4.5-7.1 4.4-5.5h-4.9L56 56.6v-4.7h-4.2v12.6H56z"/></g></svg>
