<svg width="110" height="111" viewBox="0 0 110 111" fill="none" xmlns="http://www.w3.org/2000/svg">
<g filter="url(#filter0_d_3395_28692)">
<rect x="4" y="40.1211" width="40.5737" height="53.0579" rx="4" transform="rotate(-17.7138 4 40.1211)" fill="white"/>
</g>
<g filter="url(#filter1_d_3395_28692)">
<rect x="66.7324" y="28.7754" width="40.5737" height="53.0579" rx="4" transform="rotate(15 66.7324 28.7754)" fill="white"/>
</g>
<g filter="url(#filter2_d_3395_28692)">
<rect x="29" y="21.7754" width="52" height="68" rx="4" fill="white"/>
</g>
<path fill-rule="evenodd" clip-rule="evenodd" d="M56.3045 44.598C55.0254 43.2655 52.8944 43.2655 51.6153 44.598C51.4962 44.7221 51.351 44.9197 51.1326 45.2777C50.916 45.6328 50.6521 46.1039 50.2867 46.7564L44.7491 56.645C44.3977 57.2725 44.1444 57.725 43.9618 58.0815C43.7781 58.4402 43.688 58.6602 43.6443 58.8242C43.178 60.572 44.2284 62.3641 45.9811 62.8112C46.1456 62.8531 46.3815 62.8821 46.7843 62.897C47.1846 62.9119 47.7032 62.912 48.4223 62.912H59.4976C60.2167 62.912 60.7353 62.9119 61.1355 62.897C61.5383 62.8821 61.7743 62.8531 61.9387 62.8112C63.6915 62.3641 64.7419 60.572 64.2756 58.8242C64.2318 58.6602 64.1418 58.4402 63.958 58.0815C63.7754 57.725 63.5222 57.2725 63.1708 56.645L57.6332 46.7564C57.2678 46.1039 57.0038 45.6328 56.7872 45.2777C56.5689 44.9197 56.4237 44.7221 56.3045 44.598ZM50.5332 43.5592C52.4027 41.6118 55.5172 41.6118 57.3866 43.5592C57.6218 43.8042 57.8351 44.1149 58.0678 44.4966C58.3007 44.8784 58.5781 45.3738 58.934 46.0093L64.4872 55.9258C64.8293 56.5366 65.0963 57.0134 65.2931 57.3977C65.4903 57.7826 65.6392 58.1164 65.7249 58.4375C66.4064 60.9919 64.8712 63.6112 62.3095 64.2647C61.9874 64.3468 61.6234 64.3799 61.1912 64.396C60.7598 64.412 60.2133 64.412 59.5134 64.412H48.4065C47.7066 64.412 47.1601 64.412 46.7286 64.396C46.2965 64.3799 45.9325 64.3468 45.6104 64.2647C43.0487 63.6112 41.5134 60.9919 42.195 58.4375C42.2807 58.1164 42.4296 57.7826 42.6267 57.3977C42.8236 57.0134 43.0906 56.5366 43.4325 55.926L48.9857 46.0096C49.3417 45.374 49.6192 44.8784 49.852 44.4966C50.0848 44.1149 50.2981 43.8042 50.5332 43.5592ZM53.9599 49.912C54.3741 49.912 54.7099 50.2478 54.7099 50.662V54.662C54.7099 55.0762 54.3741 55.412 53.9599 55.412C53.5457 55.412 53.2099 55.0762 53.2099 54.662V50.662C53.2099 50.2478 53.5457 49.912 53.9599 49.912ZM52.7099 58.162C52.7099 57.4717 53.2696 56.912 53.9599 56.912C54.6503 56.912 55.2099 57.4717 55.2099 58.162C55.2099 58.8524 54.6503 59.412 53.9599 59.412C53.2696 59.412 52.7099 58.8524 52.7099 58.162Z" fill="#CC8E2D"/>
<defs>
<filter id="filter0_d_3395_28692" x="1.02539" y="26.8027" width="60.7422" height="68.834" filterUnits="userSpaceOnUse" color-interpolation-filters="sRGB">
<feFlood flood-opacity="0" result="BackgroundImageFix"/>
<feColorMatrix in="SourceAlpha" type="matrix" values="0 0 0 0 0 0 0 0 0 0 0 0 0 0 0 0 0 0 127 0" result="hardAlpha"/>
<feOffset dy="2"/>
<feGaussianBlur stdDeviation="2"/>
<feComposite in2="hardAlpha" operator="out"/>
<feColorMatrix type="matrix" values="0 0 0 0 0.164706 0 0 0 0 0.266667 0 0 0 0 0.831373 0 0 0 0.12 0"/>
<feBlend mode="normal" in2="BackgroundImageFix" result="effect1_dropShadow_3395_28692"/>
<feBlend mode="normal" in="SourceGraphic" in2="effect1_dropShadow_3395_28692" result="shape"/>
</filter>
<filter id="filter1_d_3395_28692" x="49.8984" y="27.6738" width="59.127" height="67.9551" filterUnits="userSpaceOnUse" color-interpolation-filters="sRGB">
<feFlood flood-opacity="0" result="BackgroundImageFix"/>
<feColorMatrix in="SourceAlpha" type="matrix" values="0 0 0 0 0 0 0 0 0 0 0 0 0 0 0 0 0 0 127 0" result="hardAlpha"/>
<feOffset dy="2"/>
<feGaussianBlur stdDeviation="2"/>
<feComposite in2="hardAlpha" operator="out"/>
<feColorMatrix type="matrix" values="0 0 0 0 0.164706 0 0 0 0 0.266667 0 0 0 0 0.831373 0 0 0 0.12 0"/>
<feBlend mode="normal" in2="BackgroundImageFix" result="effect1_dropShadow_3395_28692"/>
<feBlend mode="normal" in="SourceGraphic" in2="effect1_dropShadow_3395_28692" result="shape"/>
</filter>
<filter id="filter2_d_3395_28692" x="25" y="19.7754" width="60" height="76" filterUnits="userSpaceOnUse" color-interpolation-filters="sRGB">
<feFlood flood-opacity="0" result="BackgroundImageFix"/>
<feColorMatrix in="SourceAlpha" type="matrix" values="0 0 0 0 0 0 0 0 0 0 0 0 0 0 0 0 0 0 127 0" result="hardAlpha"/>
<feOffset dy="2"/>
<feGaussianBlur stdDeviation="2"/>
<feComposite in2="hardAlpha" operator="out"/>
<feColorMatrix type="matrix" values="0 0 0 0 0.164706 0 0 0 0 0.266667 0 0 0 0 0.831373 0 0 0 0.12 0"/>
<feBlend mode="normal" in2="BackgroundImageFix" result="effect1_dropShadow_3395_28692"/>
<feBlend mode="normal" in="SourceGraphic" in2="effect1_dropShadow_3395_28692" result="shape"/>
</filter>
</defs>
</svg>
